# xmcd CD database file
#
# Track frame offsets:
#	150
#	21610
#	42659
#	60565
#	81994
#	101391
#	121304
#	137295
#	157884
#	179085
#	199217
#	218997
#	239973
#	262758
#	282531
#	300715
#
# Disc length: 4238 seconds
#
# Revision: 0
# Processed by: cddbd v1.5.2PL0 Copyright (c) Steve Scherf et al.
# Submitted via: CDex 1.70beta2
#
DISCID=f1108c10
DTITLE=Various Artist - Salsa Nueva 2009 CD 1
DYEAR=2009
DGENRE=Salsa
TTITLE0=Maelo Ruiz - No Me Digas Que Te Vas
TTITLE1=D'Castro Y Irving - Te Extraño
TTITLE2=Tito Nieves - Mi Mayor Sacrirficio
TTITLE3=Samir Bazzi - Ponme Un Angel
TTITLE4=Son De Cali - Que Nos Pasó
TTITLE5=Gilberto Santa Rosa - Conteo Regresivo
TTITLE6=Klan De Porfi - Plena Española
TTITLE7=N-Klabe Ft. Rakim Y Ken-Y - Si Ya No Estás
TTITLE8=Jerry Rivera - Cuesta Bajo
TTITLE9=Magia Caribeña - Micaela
TTITLE10=Tito Gómez - Fue Tan Fácil
TTITLE11=Willie González - Ahora Soy Yo
TTITLE12=Viti Ruiz - Magia Rosa
TTITLE13=El Gran Combo - Te Veo Nena
TTITLE14=Grupo Galé - Como Duele
TTITLE15=Adolescent's Orquesta - Aquel Lugar
EXTD=YEAR: 2009
EXTT0=
EXTT1=
EXTT2=
EXTT3=
EXTT4=
EXTT5=
EXTT6=
EXTT7=
EXTT8=
EXTT9=
EXTT10=
EXTT11=
EXTT12=
EXTT13=
EXTT14=
EXTT15=
PLAYORDER=
